<svg width="20" height="20" viewBox="0 0 20 20" fill="none" xmlns="http://www.w3.org/2000/svg">
<path d="M19.0013 15.1043L20 14.2348L19.124 12.7304L17.8537 13.1565C17.5719 12.922 17.252 12.7367 16.9076 12.6087L16.6448 11.3043H14.8927L14.6299 12.6C14.2855 12.728 13.9655 12.9133 13.6838 13.1478L12.4135 12.7217L11.5375 14.2261L12.5361 15.0957C12.4652 15.4575 12.4652 15.8295 12.5361 16.1913L11.5375 17.0609L12.4135 18.5652L13.6838 18.1391C13.9655 18.3737 14.2855 18.5589 14.6299 18.687L14.8927 20H16.6448L16.9076 18.7043C17.252 18.5763 17.5719 18.3911 17.8537 18.1565L19.124 18.5826L20 17.0783L19.0013 16.2087C19.0712 15.8438 19.0712 15.4692 19.0013 15.1043ZM15.7687 17.3913C15.4222 17.3913 15.0834 17.2893 14.7953 17.0982C14.5072 16.9071 14.2826 16.6355 14.15 16.3177C14.0174 15.9999 13.9827 15.6502 14.0503 15.3129C14.1179 14.9755 14.2848 14.6656 14.5298 14.4224C14.7748 14.1792 15.087 14.0136 15.4269 13.9465C15.7668 13.8794 16.1191 13.9138 16.4392 14.0454C16.7594 14.1771 17.033 14.4 17.2255 14.686C17.418 14.972 17.5208 15.3082 17.5208 15.6522C17.5194 16.113 17.3344 16.5546 17.0061 16.8804C16.6778 17.2063 16.233 17.3899 15.7687 17.3913ZM19.2729 8.69565H0V0H19.2729V8.69565ZM1.75208 6.95652H17.5208V1.73913H1.75208V6.95652ZM10.5125 3.47826H2.62812V5.21739H10.5125V3.47826ZM13.1406 3.47826C12.9673 3.47826 12.798 3.52926 12.6539 3.62481C12.5098 3.72036 12.3976 3.85617 12.3312 4.01506C12.2649 4.17395 12.2476 4.34879 12.2814 4.51747C12.3152 4.68615 12.3986 4.84109 12.5212 4.9627C12.6437 5.08431 12.7998 5.16713 12.9697 5.20068C13.1396 5.23424 13.3158 5.21701 13.4759 5.1512C13.6359 5.08538 13.7727 4.97393 13.869 4.83093C13.9653 4.68793 14.0166 4.51981 14.0166 4.34783C14.0166 4.1172 13.9243 3.89603 13.7601 3.73295C13.5958 3.56988 13.3729 3.47826 13.1406 3.47826ZM15.7687 3.47826C15.5955 3.47826 15.4261 3.52926 15.282 3.62481C15.138 3.72036 15.0257 3.85617 14.9594 4.01506C14.8931 4.17395 14.8757 4.34879 14.9095 4.51747C14.9433 4.68615 15.0268 4.84109 15.1493 4.9627C15.2718 5.08431 15.4279 5.16713 15.5978 5.20068C15.7678 5.23424 15.9439 5.21701 16.104 5.1512C16.264 5.08538 16.4009 4.97393 16.4971 4.83093C16.5934 4.68793 16.6448 4.51981 16.6448 4.34783C16.6448 4.1172 16.5525 3.89603 16.3882 3.73295C16.2239 3.56988 16.0011 3.47826 15.7687 3.47826Z" fill="black"/>
<path d="M9.894 17.3913H1.75208V12.1739H10.7403C11.2366 11.4687 11.878 10.876 12.622 10.4348H0V19.1304H10.7403C10.3667 18.5991 10.081 18.012 9.894 17.3913Z" fill="black"/>
<path d="M2.62811 15.6522H9.63644C9.63706 15.0631 9.72382 14.4773 9.89399 13.913H2.62811V15.6522Z" fill="black"/>
</svg>
