<svg width="20" height="20" viewBox="0 0 20 20" fill="none" xmlns="http://www.w3.org/2000/svg">
<path d="M8.93071 0.0165359L19.2879 1.86265C19.7021 1.93649 20 2.25156 20 2.61586V17.3848C20 17.5617 19.9291 17.7333 19.7994 17.8705C19.6697 18.0077 19.489 18.1021 19.2879 18.138L8.93071 19.9841C8.801 20.0072 8.66695 20.0051 8.53827 19.9781C8.40959 19.951 8.28952 19.8996 8.18674 19.8276C8.08397 19.7556 8.00108 19.6649 7.94407 19.5619C7.88706 19.4588 7.85737 19.3462 7.85714 19.2321V0.769749C7.85705 0.655481 7.88651 0.542631 7.94338 0.439399C8.00025 0.336168 8.0831 0.245149 8.18591 0.172957C8.28873 0.100765 8.40892 0.049214 8.53775 0.0220503C8.66658 -0.00511342 8.80082 -0.00659204 8.93071 0.0165359ZM5.71429 1.38512L5.80571 18.6118L5.71429 18.6161H0.892857C0.671828 18.616 0.458689 18.5453 0.294682 18.4177C0.130674 18.29 0.0274565 18.1145 0.00499998 17.925L0 17.8469V2.15495C0 1.75619 0.351428 1.42881 0.801428 1.38943L0.892857 1.38512H5.71429ZM11.7857 9.07725C11.5016 9.07725 11.229 9.1745 11.0281 9.34761C10.8272 9.52071 10.7143 9.7555 10.7143 10.0003C10.7143 10.2451 10.8272 10.4799 11.0281 10.653C11.229 10.8261 11.5016 10.9234 11.7857 10.9234C12.0699 10.9234 12.3424 10.8261 12.5433 10.653C12.7443 10.4799 12.8571 10.2451 12.8571 10.0003C12.8571 9.7555 12.7443 9.52071 12.5433 9.34761C12.3424 9.1745 12.0699 9.07725 11.7857 9.07725Z" fill="black"/>
</svg>
