<svg width="37" height="43" viewBox="0 0 37 43" fill="none" xmlns="http://www.w3.org/2000/svg">
<path d="M9.26872 12.4546L8.99963 12.9921H26.7895L26.5354 12.4854C26.2454 11.9018 25.903 11.1416 25.5188 10.2816C24.7474 8.56468 23.7996 6.45461 22.7367 4.59486L26.0854 4.61021C27.0452 4.61021 27.4727 3.33557 26.7058 2.73664C23.9192 0.767857 21.1865 0 17.8946 0C14.9196 0 12.1555 6.1275 10.3331 10.1664C9.92949 11.0617 9.5707 11.8542 9.26872 12.4546Z" fill="#0074BA"/>
<path d="M8.65587 12.5161L8.37183 13.0996H27.4175L27.1484 12.5468C26.6793 11.608 26.0801 10.7441 25.3694 9.98215H10.4199C9.73223 10.7346 9.13425 11.5793 8.65587 12.5161Z" fill="#533566"/>
<path d="M28.3263 25.3393H29.2292C32.8889 25.3393 35.8638 22.2433 35.8788 18.4362C35.8788 14.6277 32.9038 11.5332 29.2442 11.5332L6.63458 11.5179C2.97495 11.5179 0 14.6139 0 18.4209C0 22.2279 2.97495 25.3239 6.61964 25.3239H7.58388C7.47517 25.5153 7.38217 25.7156 7.30582 25.9229C6.73774 27.4586 7.12642 29.1632 8.30893 30.2689L8.71256 30.6375C5.91265 32.6846 3.83647 35.6114 2.79705 38.9764L2.7522 39.0993C2.36352 40.3586 2.06453 41.6946 1.86869 43H34.0101C33.8158 41.6793 33.5317 40.3279 33.1415 39.0379C32.3112 36.3216 30.8037 33.8757 28.7688 31.9429C28.274 31.4668 27.7343 31.0368 27.1961 30.6221L27.5848 30.2536C28.1598 29.718 28.5634 29.0161 28.7424 28.2403C28.9215 27.4645 28.8676 26.6512 28.5879 25.9075C28.5154 25.7113 28.4279 25.5213 28.3263 25.3393Z" fill="#00A6ED"/>
<path d="M7.57197 24.5714H28.3069C31.6556 24.5714 34.3839 22.1696 34.3839 19.2118C34.3839 16.2386 31.672 13.8368 28.3069 13.8368L7.57197 13.8214C4.22328 13.8214 1.495 16.2233 1.495 19.1964C1.495 22.1696 4.20683 24.5714 7.57197 24.5714ZM17.9365 24.8018L24.9328 24.8479C26.3934 24.8479 27.093 26.7061 26.0062 27.7196L17.9365 35.2907L9.86671 27.7196C8.79484 26.7061 9.47803 24.8632 10.9386 24.8479L17.9365 24.8018Z" fill="#0074BA"/>
<path d="M19.6945 29.2876H16.5491C16.135 29.2876 15.7209 29.2569 15.3232 29.1786L17.3429 33.3834C17.6075 33.9301 18.4357 33.9147 18.6839 33.368L20.5556 29.2415C20.291 29.2723 19.992 29.2876 19.6945 29.2876Z" fill="#FCB100"/>
<path d="M9.25366 23.5579L9.26861 19.4575C10.928 19.4268 12.5725 19.4114 14.2318 19.4268V27.6889L11.4213 26.6907C10.1207 26.23 9.25366 24.9707 9.25366 23.5579ZM21.6617 27.6889V19.5496C23.3211 19.5957 24.9805 19.6571 26.6399 19.7186V23.5579C26.6399 24.9707 25.7729 26.23 24.4722 26.6907L21.6617 27.6889Z" fill="#D3D3D3"/>
<path d="M12.707 19.8875C12.707 20.19 12.649 20.4896 12.5363 20.769C12.4236 21.0485 12.2585 21.3025 12.0502 21.5164C11.842 21.7303 11.5948 21.9 11.3227 22.0157C11.0507 22.1315 10.7591 22.1911 10.4646 22.1911C10.1701 22.1911 9.87852 22.1315 9.60645 22.0157C9.33439 21.9 9.08719 21.7303 8.87896 21.5164C8.67073 21.3025 8.50555 21.0485 8.39286 20.769C8.28017 20.4896 8.22217 20.19 8.22217 19.8875C8.22217 19.2765 8.45842 18.6906 8.87896 18.2586C9.29949 17.8266 9.86986 17.5839 10.4646 17.5839C11.0593 17.5839 11.6297 17.8266 12.0502 18.2586C12.4708 18.6906 12.707 19.2765 12.707 19.8875ZM27.6565 19.8875C27.6565 20.4984 27.4203 21.0844 26.9997 21.5164C26.5792 21.9484 26.0088 22.1911 25.4141 22.1911C24.8194 22.1911 24.249 21.9484 23.8285 21.5164C23.4079 21.0844 23.1717 20.4984 23.1717 19.8875C23.1717 19.2765 23.4079 18.6906 23.8285 18.2586C24.249 17.8266 24.8194 17.5839 25.4141 17.5839C26.0088 17.5839 26.5792 17.8266 26.9997 18.2586C27.4203 18.6906 27.6565 19.2765 27.6565 19.8875Z" fill="#FDBB11"/>
<path d="M25.7698 17.8435C25.7698 17.8281 25.7698 17.8281 25.7698 17.8435L25.7848 17.6745C25.7951 17.2741 25.7275 16.8756 25.5857 16.5024C25.444 16.1292 25.2311 15.7889 24.9595 15.5014C24.6879 15.214 24.3631 14.9852 24.0042 14.8286C23.6453 14.6719 23.2596 14.5906 22.8696 14.5893H13.0194C11.2942 14.5893 9.95026 16.0636 10.1027 17.7682L10.5602 24.7772C10.9579 27.7411 13.4933 29.9464 16.5011 29.9464H19.3864C22.3957 29.9464 24.9312 27.7273 25.3273 24.7772L25.7698 17.8435Z" fill="#FFC83D"/>
<path d="M17.9395 25.1396C17.1113 25.1396 16.3444 24.94 15.6851 24.6021C15.4714 24.4793 15.2247 24.7404 15.3637 24.9554C15.9169 25.8 16.8512 26.3529 17.9395 26.3529C18.4476 26.355 18.9483 26.2286 19.3975 25.9849C19.8467 25.7412 20.2306 25.3876 20.5153 24.9554C20.6544 24.7404 20.4077 24.4946 20.1939 24.6021C19.5346 24.94 18.7677 25.1396 17.9395 25.1396Z" fill="#990839"/>
<path d="M12.2434 19.6571C12.4677 18.7203 13.3048 18.0139 14.2915 18.0139C15.323 18.0139 16.1751 18.7664 16.3695 19.7646C16.4143 19.9796 16.2499 20.1793 16.0256 20.1793H12.647C12.378 20.1793 12.1836 19.9182 12.2434 19.6571ZM23.5901 19.6571C23.3658 18.7203 22.5287 18.0139 21.542 18.0139C20.5105 18.0139 19.6584 18.7664 19.464 19.7646C19.4192 19.9796 19.5836 20.1793 19.8079 20.1793H23.1864C23.4555 20.1793 23.6499 19.9182 23.5901 19.6571Z" fill="white"/>
<path d="M13.2604 19.8107C13.2604 19.0429 13.8584 18.4286 14.6058 18.4286C15.3533 18.4286 15.9662 19.0429 15.9513 19.8107C15.9513 19.9336 15.9363 20.0564 15.9064 20.1793H13.3052C13.2758 20.0587 13.2608 19.935 13.2604 19.8107ZM22.5739 19.8107C22.5739 19.0429 21.9759 18.4286 21.2285 18.4286C20.481 18.4286 19.8681 19.0429 19.883 19.8107C19.883 19.9336 19.898 20.0564 19.9279 20.1793H22.5291C22.559 20.0564 22.5739 19.9336 22.5739 19.8107Z" fill="#7D4533"/>
<path d="M14.6054 19.0122C15.039 19.0122 15.3828 19.3654 15.3828 19.8107C15.3828 19.9489 15.3529 20.0718 15.2782 20.1793H13.9178C13.8544 20.058 13.8228 19.9217 13.8263 19.7841C13.8298 19.6464 13.8681 19.512 13.9375 19.3942C14.0069 19.2764 14.105 19.1792 14.2222 19.1122C14.3393 19.0452 14.4714 19.0107 14.6054 19.0122ZM21.2281 19.0122C20.7945 19.0122 20.4507 19.3654 20.4507 19.8107C20.4507 19.9489 20.4806 20.0718 20.5553 20.1793H21.9157C21.9755 20.0718 22.0054 19.9489 22.0054 19.8107C22.0054 19.3654 21.6616 19.0122 21.2281 19.0122Z" fill="black"/>
<path d="M14.3815 19.2579C14.3815 19.323 14.3563 19.3855 14.3114 19.4316C14.2665 19.4777 14.2057 19.5036 14.1423 19.5036C14.0788 19.5036 14.018 19.4777 13.9731 19.4316C13.9283 19.3855 13.9031 19.323 13.9031 19.2579C13.9031 19.1927 13.9283 19.1302 13.9731 19.0841C14.018 19.038 14.0788 19.0122 14.1423 19.0122C14.2057 19.0122 14.2665 19.038 14.3114 19.0841C14.3563 19.1302 14.3815 19.1927 14.3815 19.2579ZM21.0489 19.2579C21.0489 19.323 21.0237 19.3855 20.9789 19.4316C20.934 19.4777 20.8732 19.5036 20.8097 19.5036C20.7463 19.5036 20.6855 19.4777 20.6406 19.4316C20.5958 19.3855 20.5706 19.323 20.5706 19.2579C20.5706 19.1927 20.5958 19.1302 20.6406 19.0841C20.6855 19.038 20.7463 19.0122 20.8097 19.0122C20.8732 19.0122 20.934 19.038 20.9789 19.0841C21.0237 19.1302 21.0489 19.1927 21.0489 19.2579Z" fill="white"/>
<path d="M17.4459 19.6879L16.6685 22.2832C16.5041 22.8207 16.8928 23.3582 17.4459 23.3582H18.612C19.1502 23.3582 19.5389 22.8207 19.3894 22.2832L18.612 19.6879C18.4176 19.1196 17.6253 19.1196 17.4459 19.6879Z" fill="#ED9200"/>
<path d="M12.468 16.6702C12.3746 16.7435 12.3134 16.8519 12.2978 16.9716C12.2823 17.0912 12.3136 17.2123 12.385 17.3083C12.4564 17.4042 12.5619 17.467 12.6784 17.483C12.7949 17.499 12.9128 17.4668 13.0062 17.3935L13.0091 17.3904L13.0331 17.3735L13.1452 17.3014C13.7647 16.9313 14.4849 16.7792 15.1963 16.8683C15.3128 16.8825 15.4301 16.8486 15.5224 16.774C15.6146 16.6995 15.6742 16.5903 15.6881 16.4705C15.702 16.3508 15.669 16.2303 15.5964 16.1355C15.5238 16.0408 15.4175 15.9795 15.3009 15.9653C14.3328 15.8463 13.3547 16.0782 12.5353 16.621L12.468 16.6702ZM22.8295 17.3935C23.0238 17.5455 23.3004 17.5071 23.4499 17.3075C23.4944 17.2562 23.5264 17.1947 23.5432 17.1282C23.56 17.0616 23.5611 16.992 23.5465 16.9249C23.5319 16.8578 23.5019 16.7953 23.4592 16.7424C23.4164 16.6896 23.3619 16.648 23.3004 16.621C23.0684 16.4654 22.8214 16.3347 22.5634 16.231C21.9185 15.9712 21.2209 15.8799 20.5332 15.9653C20.4167 15.9795 20.3104 16.0408 20.2378 16.1355C20.1652 16.2303 20.1322 16.3508 20.146 16.4705C20.1599 16.5903 20.2195 16.6995 20.3118 16.774C20.404 16.8486 20.5213 16.8825 20.6379 16.8683C21.3492 16.7792 22.0694 16.9313 22.6889 17.3014L22.825 17.3904L22.8295 17.3935Z" fill="#9B9B9B"/>
<path d="M21.9757 15.8025H25.2392C24.716 15.0807 24.1584 14.5893 23.2165 14.5893H19.4343C20.0622 15.3418 20.9891 15.8025 21.9757 15.8025Z" fill="#D3D3D3"/>
<path d="M34.3839 32.25C35.2136 32.25 35.8788 32.872 35.8788 33.6475V36.8571H32.8889V33.6475C32.8889 32.872 33.5542 32.25 34.3839 32.25Z" fill="#F59F00"/>
<path d="M34.7576 5.06785C34.4586 4.89892 34.0849 5.12928 34.0849 5.48249V7.97035C34.0849 8.64606 33.5467 9.21428 32.889 9.19892C32.583 9.19253 32.2916 9.0638 32.0766 8.8401C31.8617 8.61641 31.7401 8.31539 31.7378 8.00106V5.48249C31.7378 5.12928 31.3641 4.89892 31.0651 5.06785C29.8542 5.74356 29.032 7.04892 29.017 8.55392C29.0021 10.105 29.8841 11.4718 31.1548 12.1475C31.3043 12.2243 31.394 12.3778 31.394 12.5468V36.98C31.394 37.8554 32.0966 38.5771 32.9488 38.5771C33.8009 38.5771 34.3839 37.8554 34.3839 36.98V12.5468C34.3839 12.3778 34.5932 12.1936 34.7427 12.1168C35.3636 11.776 35.883 11.2688 36.2456 10.649C36.6082 10.0292 36.8005 9.32003 36.802 8.59691C36.8036 7.87378 36.6143 7.16375 36.2543 6.54234C35.8943 5.92092 35.3771 5.41136 34.7576 5.06785Z" fill="#F3AD61"/>
<path d="M32.8889 10.7039C33.9793 10.7039 35.025 10.259 35.7959 9.46699C36.5669 8.67498 37.0001 7.60079 37.0001 6.48072C37.0001 5.36066 36.5669 4.28646 35.7959 3.49446C35.025 2.70245 33.9793 2.25751 32.8889 2.25751C31.7986 2.25751 30.7529 2.70245 29.9819 3.49446C29.211 4.28646 28.7778 5.36066 28.7778 6.48072C28.7778 7.60079 29.211 8.67498 29.9819 9.46699C30.7529 10.259 31.7986 10.7039 32.8889 10.7039Z" fill="#00D1ED"/>
<path d="M35.4154 4.05429C35.9237 4.76072 35.8788 5.68215 35.3107 6.11215C34.7426 6.54215 33.8756 6.31179 33.3673 5.60536C32.8441 4.89893 32.8889 3.9775 33.457 3.5475C34.0251 3.1175 34.9071 3.34786 35.4154 4.05429Z" fill="#B4F6FC"/>
<path opacity="0.5" d="M20.8395 20.9149C20.8008 20.8693 20.7536 20.8323 20.7006 20.8061C20.6476 20.7799 20.59 20.7649 20.5312 20.7622C20.4725 20.7595 20.4138 20.7691 20.3587 20.7903C20.3037 20.8116 20.2534 20.8441 20.2109 20.8858C20.1684 20.9276 20.1346 20.9778 20.1115 21.0334C20.0885 21.089 20.0766 21.1488 20.0767 21.2092C20.0767 21.2696 20.0887 21.3294 20.1119 21.3849C20.1351 21.4404 20.169 21.4906 20.2116 21.5322L20.7932 21.9791C21.1519 22.1926 21.6797 22.4076 22.3344 22.4076C22.4498 22.4076 22.5605 22.3605 22.6421 22.2767C22.7236 22.1929 22.7695 22.0792 22.7695 21.9607C22.7695 21.8422 22.7236 21.7285 22.6421 21.6447C22.5605 21.5609 22.4498 21.5138 22.3344 21.5138C21.868 21.5138 21.4913 21.3602 21.2267 21.2036C21.0981 21.1207 20.8395 20.9441 20.8395 20.9133M15.818 20.9011C15.7769 20.8603 15.7284 20.8283 15.6753 20.8068C15.6221 20.7854 15.5654 20.7749 15.5083 20.776C15.4512 20.7772 15.3949 20.7899 15.3426 20.8135C15.2903 20.837 15.243 20.871 15.2035 20.9133L15.1886 20.9287L15.1168 20.9932C14.7193 21.3273 14.2222 21.5111 13.7086 21.5138C13.5932 21.5138 13.4826 21.5609 13.401 21.6447C13.3194 21.7285 13.2736 21.8422 13.2736 21.9607C13.2736 22.0792 13.3194 22.1929 13.401 22.2767C13.4826 22.3605 13.5932 22.4076 13.7086 22.4076C14.4236 22.4063 15.1161 22.1507 15.6685 21.6843L15.8284 21.5353L15.8314 21.5322C15.871 21.49 15.9021 21.4401 15.9228 21.3854C15.9436 21.3307 15.9536 21.2724 15.9524 21.2138C15.9511 21.1551 15.9386 21.0973 15.9155 21.0436C15.8925 20.99 15.8593 20.9415 15.818 20.9011Z" fill="#D67D00"/>
<path d="M29.1517 35.7438C29.1666 35.0941 29.6495 34.5536 30.2011 34.5536H34.6949C35.3542 34.5536 35.8789 35.1725 35.8789 35.9511V41.6025C35.8789 42.3811 35.3542 43 34.6949 43H30.2011C29.6495 43 29.1651 42.4932 29.1517 41.8405C29.1416 41.6412 29.1779 41.4423 29.2574 41.2602C29.337 41.0781 29.4575 40.918 29.6091 40.7932C29.4639 40.6732 29.3472 40.5208 29.268 40.3476C29.1887 40.1743 29.1489 39.9848 29.1517 39.7934C29.1509 39.6021 29.1915 39.413 29.2706 39.2399C29.3497 39.0667 29.4654 38.9138 29.6091 38.7921C29.4639 38.6722 29.3472 38.5198 29.268 38.3465C29.1887 38.1733 29.1489 37.9838 29.1517 37.7924C29.1511 37.6014 29.1918 37.4126 29.2709 37.2397C29.35 37.0668 29.4655 36.9141 29.6091 36.7926C29.4582 36.6668 29.3382 36.5064 29.2588 36.3242C29.1793 36.142 29.1426 35.9432 29.1517 35.7438Z" fill="#FFC83D"/>
</svg>
