<svg width="36" height="40" viewBox="0 0 36 40" fill="none" xmlns="http://www.w3.org/2000/svg">
<path d="M18 20C19.917 20 21.7909 19.4135 23.3848 18.3147C24.9787 17.2159 26.2209 15.6541 26.9545 13.8268C27.6881 11.9996 27.8801 9.98891 27.5061 8.0491C27.1321 6.10929 26.209 4.32746 24.8535 2.92894C23.498 1.53041 21.771 0.578004 19.8909 0.192152C18.0108 -0.1937 16.062 0.00433283 14.2909 0.761209C12.5199 1.51809 11.0061 2.79981 9.94114 4.4443C8.87614 6.08879 8.30769 8.02219 8.30769 10C8.30769 12.6522 9.32884 15.1957 11.1465 17.0711C12.9642 18.9464 15.4294 20 18 20ZM18 22.8571C11.9925 22.8571 0 26.6857 0 34.2857V40H36V34.2857C36 26.6857 24.0075 22.8571 18 22.8571Z" fill="#267F7A"/>
</svg>
