<svg width="45" height="42" viewBox="0 0 45 42" fill="none" xmlns="http://www.w3.org/2000/svg">
<path d="M31.811 41.1158L31.297 38.6842C30.8401 38.5 30.4121 38.2974 30.0131 38.0763C29.6141 37.8552 29.2235 37.5974 28.8412 37.3026L26.4425 38.1316C26.176 38.2052 25.9194 38.1964 25.6727 38.105C25.4259 38.0137 25.2257 37.8567 25.0719 37.6342L23.7012 35.3684C23.5489 35.1474 23.5017 34.9079 23.5595 34.65C23.6174 34.3921 23.7408 34.171 23.9296 33.9868L25.8143 32.3842C25.7382 31.8316 25.7001 31.3622 25.7001 30.9761C25.7001 30.59 25.7382 30.1199 25.8143 29.5658L23.9296 27.9631C23.7393 27.7789 23.6159 27.5579 23.5595 27.3C23.5032 27.0421 23.5504 26.8026 23.7012 26.5816L25.0719 24.3158C25.2242 24.0947 25.4244 23.9385 25.6727 23.8471C25.9209 23.7558 26.1775 23.7462 26.4425 23.8184L28.8412 24.6474C29.2219 24.3526 29.6126 24.0859 30.0131 23.8471C30.4137 23.6084 30.8416 23.3962 31.297 23.2105L31.811 20.7789C31.8871 20.521 32.0112 20.3088 32.1833 20.1423C32.3554 19.9758 32.593 19.8933 32.8961 19.8947H35.6374C35.942 19.8947 36.1804 19.978 36.3525 20.1445C36.5246 20.311 36.6479 20.5225 36.7226 20.7789L37.2365 23.2105C37.6934 23.3947 38.1222 23.5974 38.5227 23.8184C38.9232 24.0395 39.3131 24.2974 39.6923 24.5921L42.091 23.7631C42.3575 23.6895 42.6149 23.699 42.8632 23.7919C43.1114 23.8847 43.3109 24.0409 43.4617 24.2605L44.8324 26.5263C44.9846 26.7474 45.0326 26.9868 44.9763 27.2447C44.9199 27.5026 44.7958 27.7237 44.6039 27.9079L42.7192 29.5105C42.7954 30.0631 42.8335 30.5333 42.8335 30.9208C42.8335 31.3084 42.7954 31.7778 42.7192 32.3289L44.6039 33.9316C44.7943 34.1158 44.9184 34.3368 44.9763 34.5947C45.0341 34.8526 44.9862 35.0921 44.8324 35.3131L43.4617 37.5789C43.3094 37.8 43.119 37.9569 42.8906 38.0498C42.6621 38.1426 42.4146 38.1515 42.1481 38.0763L39.6923 37.3026C39.3116 37.5974 38.9217 37.8552 38.5227 38.0763C38.1237 38.2974 37.695 38.5 37.2365 38.6842L36.7226 41.1158C36.6464 41.3737 36.523 41.5859 36.3525 41.7524C36.1819 41.9189 35.9436 42.0015 35.6374 42H32.8961C32.5915 42 32.3539 41.9175 32.1833 41.7524C32.0128 41.5873 31.8887 41.3751 31.811 41.1158ZM34.2668 35.3684C35.5232 35.3684 36.5992 34.9359 37.4947 34.0708C38.3902 33.2058 38.8372 32.1646 38.8357 30.9474C38.8341 29.7301 38.3872 28.6897 37.4947 27.8261C36.6022 26.9625 35.5263 26.5293 34.2668 26.5263C33.0073 26.5234 31.9321 26.9566 31.0411 27.8261C30.1502 28.6956 29.7024 29.736 29.6979 30.9474C29.6933 32.1587 30.141 33.1999 31.0411 34.0708C31.9412 34.9418 33.0164 35.3743 34.2668 35.3684ZM18.2756 22.1053C17.6284 22.1053 17.0862 21.893 16.6491 21.4686C16.212 21.0442 15.9927 20.5196 15.9912 19.8947C15.9896 19.2699 16.2089 18.7453 16.6491 18.3208C17.0892 17.8964 17.6314 17.6842 18.2756 17.6842C18.9198 17.6842 19.4628 17.8964 19.9044 18.3208C20.3461 18.7453 20.5646 19.2699 20.5601 19.8947C20.5555 20.5196 20.3362 21.0449 19.9021 21.4708C19.4681 21.8967 18.9259 22.1082 18.2756 22.1053ZM2.28446 39.7895C1.6372 39.7895 1.09502 39.5772 0.65793 39.1528C0.220838 38.7284 0.00153084 38.2038 7.87741e-06 37.5789C-0.00151509 36.9541 0.217792 36.4295 0.65793 36.005C1.09807 35.5806 1.64024 35.3684 2.28446 35.3684H4.56891V4.42105C4.56891 3.20526 5.01666 2.16484 5.91217 1.29979C6.80767 0.434737 7.88288 0.00147368 9.13781 0H22.8445C23.7202 0 24.4916 0.202632 25.1587 0.607895C25.8257 1.01316 26.3679 1.54737 26.7852 2.21053H31.9823C33.2388 2.21053 34.3147 2.64379 35.2102 3.51031C36.1058 4.37684 36.5527 5.41726 36.5512 6.63158V13.2632C36.5512 13.8895 36.3319 14.4148 35.8933 14.8393C35.4547 15.2637 34.9125 15.4752 34.2668 15.4737C33.621 15.4722 33.0789 15.26 32.6402 14.837C32.2016 14.4141 31.9823 13.8895 31.9823 13.2632V6.63158H27.4134V15.8053C27.4134 16.5421 27.1758 17.0947 26.7007 17.4631C26.2255 17.8316 25.7016 18.0158 25.129 18.0158C24.5563 18.0158 24.0332 17.8316 23.5595 17.4631C23.0859 17.0947 22.8476 16.5421 22.8445 15.8053V4.42105H9.13781V35.3684H17.5332C18.2946 35.3684 18.8566 35.599 19.2191 36.0603C19.5816 36.5216 19.762 37.0278 19.7605 37.5789C19.759 38.1301 19.5777 38.637 19.2168 39.0998C18.8559 39.5625 18.2946 39.7924 17.5332 39.7895H2.28446Z" fill="#267F7A"/>
</svg>
