<svg width="12" height="12" viewBox="0 0 12 12" fill="none" xmlns="http://www.w3.org/2000/svg">
<path d="M8.79922 7.73889H8.24317L8.04609 7.54896C8.48596 7.03824 8.80745 6.43666 8.98753 5.78727C9.16762 5.13788 9.20186 4.45673 9.0878 3.79257C8.75698 1.837 7.12404 0.275356 5.15324 0.0361849C4.46037 -0.0514179 3.75664 0.0205485 3.09589 0.246577C2.43513 0.472606 1.83487 0.846706 1.34104 1.34025C0.847202 1.8338 0.472883 2.4337 0.246722 3.09407C0.0205605 3.75444 -0.0514481 4.45776 0.0362061 5.15022C0.275517 7.11986 1.83808 8.75185 3.7948 9.08247C4.45935 9.19646 5.14089 9.16224 5.79066 8.98226C6.44043 8.80228 7.04237 8.48099 7.55339 8.04137L7.74343 8.23834V8.79406L10.7348 11.7837C11.0234 12.0721 11.495 12.0721 11.7836 11.7837C12.0721 11.4953 12.0721 11.024 11.7836 10.7356L8.79922 7.73889ZM4.57608 7.73889C2.82348 7.73889 1.40873 6.32497 1.40873 4.5734C1.40873 2.82182 2.82348 1.4079 4.57608 1.4079C6.32868 1.4079 7.74343 2.82182 7.74343 4.5734C7.74343 6.32497 6.32868 7.73889 4.57608 7.73889Z" fill="black" fill-opacity="0.5"/>
</svg>
