<svg width="17" height="15" viewBox="0 0 17 15" fill="none" xmlns="http://www.w3.org/2000/svg">
<path d="M8.49998 13.9999C11.7711 13.9999 14.4228 11.4317 14.4228 8.2636C14.4228 5.09555 11.7711 2.52734 8.49998 2.52734C5.22889 2.52734 2.57715 5.09555 2.57715 8.2636C2.57715 11.4317 5.22889 13.9999 8.49998 13.9999Z" fill="white" stroke="black" stroke-width="1.5"/>
<path d="M3.39367 1C2.81967 1.14889 2.29626 1.44152 1.87607 1.84847C1.45588 2.25542 1.15373 2.76235 1 3.31827M13.6063 1C14.1803 1.14889 14.7037 1.44152 15.1239 1.84847C15.5441 2.25542 15.8463 2.76235 16 3.31827M8.5 4.98588V8.05888C8.5 8.17196 8.59477 8.26374 8.71153 8.26374H11.0384" fill="white"/>
<path d="M3.39367 1C2.81967 1.14889 2.29626 1.44152 1.87607 1.84847C1.45588 2.25542 1.15373 2.76235 1 3.31827M13.6063 1C14.1803 1.14889 14.7037 1.44152 15.1239 1.84847C15.5441 2.25542 15.8463 2.76235 16 3.31827M8.5 4.98588V8.05888C8.5 8.17196 8.59477 8.26374 8.71153 8.26374H11.0384" stroke="black" stroke-width="1.5" stroke-linecap="round"/>
</svg>
